<?xml version="1.0" encoding="UTF-8"?>
<svg version="1.1" xmlns="http://www.w3.org/2000/svg" width="600" height="600">
<path d="M0 0 C2.96416424 2.66131279 5.85459127 5.39085542 8.7109375 8.16796875 C9.26273682 8.68915283 9.81453613 9.21033691 10.38305664 9.74731445 C14.92224131 14.12328684 18.64013668 18.83723887 22.2734375 23.98046875 C22.84280029 24.78234619 23.41216309 25.58422363 23.9987793 26.41040039 C25.58143249 28.6549028 27.14987149 30.90841746 28.7109375 33.16796875 C29.33484375 34.06773437 29.95875 34.9675 30.6015625 35.89453125 C36.45284423 44.99295284 41.80693019 56.48378779 43.7109375 67.16796875 C44.37448242 67.02721924 45.03802734 66.88646973 45.72167969 66.74145508 C52.52815479 65.38815224 59.02762098 64.8141463 65.9609375 64.85546875 C67.46636108 64.86392822 67.46636108 64.86392822 69.00219727 64.87255859 C94.66271625 65.2887308 117.0332711 75.88690998 135.3359375 93.7265625 C150.91771305 110.09217737 160.47746433 131.59167194 161.7109375 154.16796875 C161.76378906 154.8846875 161.81664062 155.60140625 161.87109375 156.33984375 C162.76102133 178.78149576 154.53091956 202.55053326 139.5234375 219.23046875 C137.93719739 220.89358641 136.33342209 222.54019057 134.7109375 224.16796875 C133.87820313 225.01617187 133.04546875 225.864375 132.1875 226.73828125 C110.91017972 247.61287622 84.64310238 253.67722385 55.74716187 253.54891968 C54.01473562 253.55238668 52.28231159 253.55715816 50.54989207 253.56310141 C45.84412921 253.57549781 41.13855145 253.56949353 36.43278837 253.56014276 C31.33662449 253.55330557 26.24049064 253.56385638 21.14433289 253.57208252 C11.18314403 253.58537201 1.22202326 253.5825637 -8.73916818 253.5738446 C-16.8388169 253.5670503 -24.93844663 253.56615885 -33.03809738 253.56941605 C-34.19391536 253.56987575 -35.34973333 253.57033544 -36.54057609 253.57080907 C-38.88907978 253.57176831 -41.23758347 253.57274095 -43.58608715 253.57372685 C-65.5700029 253.58226653 -87.55388101 253.57246857 -109.53779058 253.55632575 C-128.37677504 253.54292031 -147.21570404 253.5452553 -166.0546875 253.55908203 C-187.96676908 253.57515686 -209.87881775 253.58144643 -231.7909044 253.57224524 C-234.12982265 253.57128966 -236.4687409 253.57034654 -238.80765915 253.56941605 C-239.95826018 253.56895322 -241.10886121 253.56849039 -242.29432894 253.56801354 C-250.37971558 253.56542963 -258.46508124 253.56978164 -266.55046463 253.57685471 C-276.41014318 253.58529091 -286.26975013 253.58294494 -296.12942053 253.56701247 C-301.15422902 253.5591588 -306.17891836 253.5559884 -311.20372581 253.56595993 C-315.81271449 253.57496762 -320.42147474 253.56987507 -325.030443 253.55402727 C-326.68831906 253.55070503 -328.34621484 253.5523151 -330.00407799 253.55965464 C-354.46220151 253.65953899 -376.55865751 247.58056443 -395.2890625 231.16796875 C-396.32160156 230.27851562 -396.32160156 230.27851562 -397.375 229.37109375 C-412.92076104 214.99280093 -420.87682672 193.76814731 -422.44921875 173.05859375 C-423.25013094 152.3045213 -415.50109586 131.56760915 -401.9765625 116.04296875 C-400.43265554 114.40029333 -398.87002126 112.77501594 -397.2890625 111.16796875 C-396.52851563 110.39453125 -395.76796875 109.62109375 -394.984375 108.82421875 C-378.22465262 92.7788452 -356.3747388 86.56517459 -333.57421875 86.96484375 C-328.68307276 87.13250334 -324.0036424 87.8412528 -319.2890625 89.16796875 C-319.01707031 88.58917969 -318.74507813 88.01039063 -318.46484375 87.4140625 C-308.09996863 67.61405188 -285.79406041 52.30485036 -264.99072266 45.40576172 C-255.96174842 42.61645689 -247.00271061 40.00625309 -237.4765625 40.23828125 C-228.05987233 40.75519197 -228.05987233 40.75519197 -219.81640625 37.1484375 C-218.16037228 34.47240053 -218.16037228 34.47240053 -216.8203125 31.45703125 C-215.04480369 27.64331079 -212.83807343 24.62867853 -210.2265625 21.35546875 C-209.531073 20.47773804 -209.531073 20.47773804 -208.8215332 19.58227539 C-184.07633345 -11.01080527 -148.69656928 -30.18507356 -109.51098633 -34.36767578 C-70.24344078 -37.9026317 -29.87589667 -26.13918004 0 0 Z " fill="#FEFEFE" transform="translate(430.2890625,190.83203125)"/>
<path d="M0 0 C3.63 0 7.26 0 11 0 C11 0.33 11 0.66 11 1 C7.37 1 3.74 1 0 1 C0 0.67 0 0.34 0 0 Z " fill="#242122" transform="translate(86,269)"/>
<path d="M0 0 C4 1 4 1 4 1 Z " fill="#2B1627" transform="translate(487,247)"/>
<path d="M0 0 C3 1 3 1 3 1 Z " fill="#252122" transform="translate(503,247)"/>
<path d="M0 0 C3 1 3 1 3 1 Z " fill="#202020" transform="translate(190,222)"/>
<path d="M0 0 C3 1 3 1 3 1 Z " fill="#2D132A" transform="translate(318,148)"/>
<path d="M0 0 C2 1 2 1 2 1 Z " fill="#201D1D" transform="translate(509,451)"/>
<path d="M0 0 C2 1 2 1 2 1 Z " fill="#272323" transform="translate(78,451)"/>
<path d="" fill="#301030" transform="translate(0,0)"/>
<path d="" fill="#211E1E" transform="translate(0,0)"/>
<path d="" fill="#202020" transform="translate(0,0)"/>
<path d="" fill="#242222" transform="translate(0,0)"/>
<path d="" fill="#2B2929" transform="translate(0,0)"/>
<path d="" fill="#301030" transform="translate(0,0)"/>
<path d="" fill="#1E1B1E" transform="translate(0,0)"/>
<path d="M0 0 C2 1 2 1 2 1 Z " fill="#241D20" transform="translate(105,270)"/>
<path d="M0 0 C2 1 2 1 2 1 Z " fill="#211F1F" transform="translate(77,270)"/>
<path d="M0 0 C2 1 2 1 2 1 Z " fill="#320F2F" transform="translate(522,250)"/>
<path d="M0 0 C2 1 2 1 2 1 Z " fill="#211E21" transform="translate(182,223)"/>
<path d="M0 0 C2 1 2 1 2 1 Z " fill="#2A2A2A" transform="translate(296,152)"/>
<path d="M0 0 C2 1 2 1 2 1 Z " fill="#262326" transform="translate(369,151)"/>
<path d="M0 0 C2 1 2 1 2 1 Z " fill="#232020" transform="translate(311,149)"/>
<path d="M0 0 C2 1 2 1 2 1 Z " fill="#261826" transform="translate(351,148)"/>
<path d="" fill="#271D1D" transform="translate(0,0)"/>
<path d="" fill="#251E1E" transform="translate(0,0)"/>
<path d="" fill="#1C1C1C" transform="translate(0,0)"/>
<path d="" fill="#222222" transform="translate(0,0)"/>
<path d="" fill="#252020" transform="translate(0,0)"/>
<path d="" fill="#1F1F1F" transform="translate(0,0)"/>
<path d="" fill="#202020" transform="translate(0,0)"/>
<path d="" fill="#261C1C" transform="translate(0,0)"/>
<path d="" fill="#222222" transform="translate(0,0)"/>
<path d="" fill="#2A152A" transform="translate(0,0)"/>
<path d="" fill="#400040" transform="translate(0,0)"/>
<path d="" fill="#241B24" transform="translate(0,0)"/>
<path d="" fill="#242424" transform="translate(0,0)"/>
<path d="" fill="#221C22" transform="translate(0,0)"/>
<path d="" fill="#281B1B" transform="translate(0,0)"/>
<path d="" fill="#252020" transform="translate(0,0)"/>
<path d="" fill="#271D1D" transform="translate(0,0)"/>
<path d="" fill="#271F1F" transform="translate(0,0)"/>
<path d="" fill="#272727" transform="translate(0,0)"/>
<path d="" fill="#241B24" transform="translate(0,0)"/>
<path d="" fill="#251F1F" transform="translate(0,0)"/>
<path d="" fill="#333333" transform="translate(0,0)"/>
<path d="" fill="#2A152A" transform="translate(0,0)"/>
<path d="" fill="#1F1F1F" transform="translate(0,0)"/>
<path d="" fill="#242424" transform="translate(0,0)"/>
<path d="" fill="#231C23" transform="translate(0,0)"/>
<path d="" fill="#1E1E1E" transform="translate(0,0)"/>
<path d="" fill="#242020" transform="translate(0,0)"/>
<path d="" fill="#1C1C1C" transform="translate(0,0)"/>
<path d="" fill="#202020" transform="translate(0,0)"/>
<path d="" fill="#242424" transform="translate(0,0)"/>
<path d="" fill="#242424" transform="translate(0,0)"/>
<path d="" fill="#242424" transform="translate(0,0)"/>
<path d="" fill="#242424" transform="translate(0,0)"/>
<path d="" fill="#202020" transform="translate(0,0)"/>
<path d="" fill="#221C22" transform="translate(0,0)"/>
<path d="" fill="#221D22" transform="translate(0,0)"/>
<path d="" fill="#252020" transform="translate(0,0)"/>
<path d="" fill="#231C23" transform="translate(0,0)"/>
<path d="" fill="#1F1F1F" transform="translate(0,0)"/>
<path d="" fill="#202020" transform="translate(0,0)"/>
<path d="" fill="#251F1F" transform="translate(0,0)"/>
<path d="" fill="#1A1A1A" transform="translate(0,0)"/>
<path d="" fill="#2E1717" transform="translate(0,0)"/>
<path d="" fill="#333333" transform="translate(0,0)"/>
<path d="" fill="#221C22" transform="translate(0,0)"/>
<path d="" fill="#2A152A" transform="translate(0,0)"/>
<path d="" fill="#261C1C" transform="translate(0,0)"/>
<path d="" fill="#400040" transform="translate(0,0)"/>
<path d="" fill="#202020" transform="translate(0,0)"/>
<path d="" fill="#232323" transform="translate(0,0)"/>
<path d="" fill="#221D22" transform="translate(0,0)"/>
<path d="" fill="#333333" transform="translate(0,0)"/>
<path d="" fill="#231C23" transform="translate(0,0)"/>
<path d="" fill="#1F1F1F" transform="translate(0,0)"/>
<path d="" fill="#231D23" transform="translate(0,0)"/>
<path d="" fill="#272727" transform="translate(0,0)"/>
<path d="" fill="#212121" transform="translate(0,0)"/>
<path d="" fill="#241F1F" transform="translate(0,0)"/>
<path d="" fill="#251E1E" transform="translate(0,0)"/>
<path d="" fill="#333333" transform="translate(0,0)"/>
<path d="" fill="#232323" transform="translate(0,0)"/>
<path d="" fill="#202020" transform="translate(0,0)"/>
<path d="" fill="#212121" transform="translate(0,0)"/>
<path d="" fill="#212121" transform="translate(0,0)"/>
<path d="" fill="#212121" transform="translate(0,0)"/>
<path d="" fill="#2E1717" transform="translate(0,0)"/>
<path d="" fill="#271F1F" transform="translate(0,0)"/>
<path d="" fill="#241B24" transform="translate(0,0)"/>
<path d="" fill="#231D23" transform="translate(0,0)"/>
<path d="" fill="#271F1F" transform="translate(0,0)"/>
<path d="" fill="#212121" transform="translate(0,0)"/>
<path d="" fill="#1A1A1A" transform="translate(0,0)"/>
<path d="" fill="#1E1E1E" transform="translate(0,0)"/>
<path d="" fill="#271F1F" transform="translate(0,0)"/>
<path d="" fill="#212121" transform="translate(0,0)"/>
<path d="" fill="#212121" transform="translate(0,0)"/>
<path d="" fill="#251F1F" transform="translate(0,0)"/>
<path d="" fill="#1C1C1C" transform="translate(0,0)"/>
<path d="" fill="#241F1F" transform="translate(0,0)"/>
<path d="" fill="#251E1E" transform="translate(0,0)"/>
<path d="" fill="#252020" transform="translate(0,0)"/>
<path d="" fill="#333333" transform="translate(0,0)"/>
<path d="" fill="#212121" transform="translate(0,0)"/>
<path d="" fill="#272727" transform="translate(0,0)"/>
<path d="" fill="#251F1F" transform="translate(0,0)"/>
<path d="" fill="#251E1E" transform="translate(0,0)"/>
<path d="" fill="#1C1C1C" transform="translate(0,0)"/>
<path d="" fill="#2A2A2A" transform="translate(0,0)"/>
<path d="" fill="#242424" transform="translate(0,0)"/>
<path d="" fill="#222222" transform="translate(0,0)"/>
<path d="" fill="#1F1F1F" transform="translate(0,0)"/>
<path d="" fill="#400040" transform="translate(0,0)"/>
<path d="" fill="#222222" transform="translate(0,0)"/>
<path d="" fill="#241B24" transform="translate(0,0)"/>
<path d="" fill="#241D1D" transform="translate(0,0)"/>
<path d="" fill="#212121" transform="translate(0,0)"/>
<path d="" fill="#333333" transform="translate(0,0)"/>
<path d="" fill="#202020" transform="translate(0,0)"/>
<path d="" fill="#242424" transform="translate(0,0)"/>
<path d="" fill="#212121" transform="translate(0,0)"/>
<path d="" fill="#261A26" transform="translate(0,0)"/>
<path d="" fill="#1C1C1C" transform="translate(0,0)"/>
<path d="" fill="#1C1C1C" transform="translate(0,0)"/>
<path d="" fill="#400040" transform="translate(0,0)"/>
<path d="" fill="#241E1E" transform="translate(0,0)"/>
<path d="" fill="#2E1717" transform="translate(0,0)"/>
<path d="" fill="#271F1F" transform="translate(0,0)"/>
<path d="" fill="#241E1E" transform="translate(0,0)"/>
<path d="" fill="#2A2A2A" transform="translate(0,0)"/>
<path d="" fill="#241B24" transform="translate(0,0)"/>
<path d="" fill="#1A1A1A" transform="translate(0,0)"/>
<path d="" fill="#400040" transform="translate(0,0)"/>
<path d="" fill="#221C22" transform="translate(0,0)"/>
<path d="" fill="#251F1F" transform="translate(0,0)"/>
<path d="" fill="#241F1F" transform="translate(0,0)"/>
<path d="" fill="#272727" transform="translate(0,0)"/>
<path d="" fill="#241E1E" transform="translate(0,0)"/>
<path d="" fill="#241F1F" transform="translate(0,0)"/>
<path d="" fill="#202020" transform="translate(0,0)"/>
<path d="" fill="#252020" transform="translate(0,0)"/>
<path d="" fill="#2A2A2A" transform="translate(0,0)"/>
<path d="" fill="#202020" transform="translate(0,0)"/>
<path d="" fill="#212121" transform="translate(0,0)"/>
<path d="" fill="#242424" transform="translate(0,0)"/>
<path d="" fill="#202020" transform="translate(0,0)"/>
<path d="" fill="#202020" transform="translate(0,0)"/>
<path d="" fill="#1C1C1C" transform="translate(0,0)"/>
<path d="" fill="#231E1E" transform="translate(0,0)"/>
<path d="" fill="#242424" transform="translate(0,0)"/>
<path d="" fill="#1E1E1E" transform="translate(0,0)"/>
<path d="" fill="#212121" transform="translate(0,0)"/>
<path d="" fill="#231E1E" transform="translate(0,0)"/>
<path d="" fill="#1C1C1C" transform="translate(0,0)"/>
<path d="" fill="#241D1D" transform="translate(0,0)"/>
<path d="" fill="#1A1A1A" transform="translate(0,0)"/>
<path d="" fill="#333333" transform="translate(0,0)"/>
<path d="" fill="#231C23" transform="translate(0,0)"/>
<path d="" fill="#242424" transform="translate(0,0)"/>
<path d="" fill="#1F1F1F" transform="translate(0,0)"/>
<path d="" fill="#241B24" transform="translate(0,0)"/>
<path d="" fill="#252020" transform="translate(0,0)"/>
<path d="" fill="#212121" transform="translate(0,0)"/>
<path d="" fill="#212121" transform="translate(0,0)"/>
<path d="" fill="#241D1D" transform="translate(0,0)"/>
<path d="" fill="#212121" transform="translate(0,0)"/>
<path d="" fill="#212121" transform="translate(0,0)"/>
<path d="" fill="#2A2A2A" transform="translate(0,0)"/>
<path d="" fill="#241D1D" transform="translate(0,0)"/>
<path d="" fill="#202020" transform="translate(0,0)"/>
<path d="" fill="#1F1F1F" transform="translate(0,0)"/>
<path d="" fill="#222222" transform="translate(0,0)"/>
<path d="" fill="#202020" transform="translate(0,0)"/>
<path d="" fill="#241B24" transform="translate(0,0)"/>
<path d="" fill="#1C1C1C" transform="translate(0,0)"/>
<path d="" fill="#400040" transform="translate(0,0)"/>
<path d="" fill="#221C22" transform="translate(0,0)"/>
<path d="" fill="#232323" transform="translate(0,0)"/>
<path d="" fill="#241D1D" transform="translate(0,0)"/>
<path d="" fill="#212121" transform="translate(0,0)"/>
<path d="" fill="#212121" transform="translate(0,0)"/>
<path d="" fill="#1A1A1A" transform="translate(0,0)"/>
<path d="" fill="#272727" transform="translate(0,0)"/>
<path d="" fill="#212121" transform="translate(0,0)"/>
<path d="" fill="#2A2A2A" transform="translate(0,0)"/>
<path d="" fill="#241F1F" transform="translate(0,0)"/>
<path d="" fill="#222222" transform="translate(0,0)"/>
<path d="" fill="#241F1F" transform="translate(0,0)"/>
<path d="" fill="#2E1717" transform="translate(0,0)"/>
<path d="" fill="#2A2A2A" transform="translate(0,0)"/>
<path d="" fill="#221C22" transform="translate(0,0)"/>
<path d="" fill="#212121" transform="translate(0,0)"/>
<path d="" fill="#202020" transform="translate(0,0)"/>
<path d="" fill="#202020" transform="translate(0,0)"/>
<path d="" fill="#2A152A" transform="translate(0,0)"/>
<path d="" fill="#202020" transform="translate(0,0)"/>
<path d="" fill="#242424" transform="translate(0,0)"/>
<path d="" fill="#400040" transform="translate(0,0)"/>
<path d="" fill="#202020" transform="translate(0,0)"/>
<path d="" fill="#221D22" transform="translate(0,0)"/>
<path d="" fill="#202020" transform="translate(0,0)"/>
<path d="" fill="#202020" transform="translate(0,0)"/>
<path d="" fill="#251F1F" transform="translate(0,0)"/>
<path d="" fill="#333333" transform="translate(0,0)"/>
<path d="" fill="#251E1E" transform="translate(0,0)"/>
<path d="" fill="#202020" transform="translate(0,0)"/>
<path d="" fill="#333333" transform="translate(0,0)"/>
<path d="" fill="#202020" transform="translate(0,0)"/>
<path d="" fill="#252020" transform="translate(0,0)"/>
<path d="" fill="#202020" transform="translate(0,0)"/>
<path d="" fill="#202020" transform="translate(0,0)"/>
<path d="" fill="#222222" transform="translate(0,0)"/>
<path d="" fill="#252020" transform="translate(0,0)"/>
<path d="" fill="#333333" transform="translate(0,0)"/>
<path d="" fill="#212121" transform="translate(0,0)"/>
<path d="" fill="#241D1D" transform="translate(0,0)"/>
<path d="" fill="#202020" transform="translate(0,0)"/>
<path d="" fill="#1C1C1C" transform="translate(0,0)"/>
<path d="" fill="#212121" transform="translate(0,0)"/>
<path d="" fill="#2A2A2A" transform="translate(0,0)"/>
<path d="" fill="#281B1B" transform="translate(0,0)"/>
<path d="" fill="#202020" transform="translate(0,0)"/>
<path d="" fill="#1C1C1C" transform="translate(0,0)"/>
<path d="" fill="#2A2A2A" transform="translate(0,0)"/>
<path d="" fill="#212121" transform="translate(0,0)"/>
<path d="" fill="#281B1B" transform="translate(0,0)"/>
<path d="" fill="#231D23" transform="translate(0,0)"/>
<path d="" fill="#251F1F" transform="translate(0,0)"/>
<path d="" fill="#242424" transform="translate(0,0)"/>
<path d="" fill="#1C1C1C" transform="translate(0,0)"/>
<path d="" fill="#2A152A" transform="translate(0,0)"/>
<path d="" fill="#400040" transform="translate(0,0)"/>
<path d="" fill="#242424" transform="translate(0,0)"/>
<path d="" fill="#2A2A2A" transform="translate(0,0)"/>
<path d="" fill="#1E1E1E" transform="translate(0,0)"/>
<path d="" fill="#242424" transform="translate(0,0)"/>
<path d="" fill="#261A26" transform="translate(0,0)"/>
<path d="" fill="#1C1C1C" transform="translate(0,0)"/>
<path d="" fill="#202020" transform="translate(0,0)"/>
<path d="" fill="#2E1717" transform="translate(0,0)"/>
<path d="" fill="#281B1B" transform="translate(0,0)"/>
<path d="" fill="#242424" transform="translate(0,0)"/>
<path d="" fill="#2E1717" transform="translate(0,0)"/>
<path d="" fill="#333333" transform="translate(0,0)"/>
<path d="" fill="#202020" transform="translate(0,0)"/>
<path d="" fill="#202020" transform="translate(0,0)"/>
<path d="" fill="#271F1F" transform="translate(0,0)"/>
<path d="" fill="#272727" transform="translate(0,0)"/>
<path d="" fill="#1A1A1A" transform="translate(0,0)"/>
<path d="" fill="#221D22" transform="translate(0,0)"/>
<path d="" fill="#1E1E1E" transform="translate(0,0)"/>
<path d="" fill="#222222" transform="translate(0,0)"/>
<path d="" fill="#1C1C1C" transform="translate(0,0)"/>
<path d="" fill="#261A26" transform="translate(0,0)"/>
<path d="" fill="#242424" transform="translate(0,0)"/>
<path d="" fill="#251E1E" transform="translate(0,0)"/>
<path d="" fill="#251E1E" transform="translate(0,0)"/>
<path d="" fill="#1F1F1F" transform="translate(0,0)"/>
<path d="" fill="#241E1E" transform="translate(0,0)"/>
<path d="" fill="#1E1E1E" transform="translate(0,0)"/>
<path d="" fill="#222222" transform="translate(0,0)"/>
<path d="" fill="#241F1F" transform="translate(0,0)"/>
<path d="" fill="#1C1C1C" transform="translate(0,0)"/>
<path d="" fill="#1E1E1E" transform="translate(0,0)"/>
<path d="" fill="#1C1C1C" transform="translate(0,0)"/>
<path d="" fill="#202020" transform="translate(0,0)"/>
<path d="" fill="#212121" transform="translate(0,0)"/>
<path d="" fill="#202020" transform="translate(0,0)"/>
<path d="" fill="#212121" transform="translate(0,0)"/>
<path d="" fill="#251F1F" transform="translate(0,0)"/>
<path d="" fill="#252020" transform="translate(0,0)"/>
<path d="" fill="#241F1F" transform="translate(0,0)"/>
<path d="" fill="#202020" transform="translate(0,0)"/>
<path d="" fill="#221C22" transform="translate(0,0)"/>
<path d="" fill="#202020" transform="translate(0,0)"/>
<path d="" fill="#1C1C1C" transform="translate(0,0)"/>
<path d="" fill="#333333" transform="translate(0,0)"/>
<path d="" fill="#2A2A2A" transform="translate(0,0)"/>
<path d="" fill="#1F1F1F" transform="translate(0,0)"/>
<path d="" fill="#261A26" transform="translate(0,0)"/>
<path d="" fill="#251F1F" transform="translate(0,0)"/>
<path d="" fill="#221C22" transform="translate(0,0)"/>
<path d="" fill="#400040" transform="translate(0,0)"/>
<path d="" fill="#242424" transform="translate(0,0)"/>
<path d="" fill="#242424" transform="translate(0,0)"/>
<path d="" fill="#2A2A2A" transform="translate(0,0)"/>
<path d="" fill="#232323" transform="translate(0,0)"/>
<path d="" fill="#202020" transform="translate(0,0)"/>
<path d="" fill="#252020" transform="translate(0,0)"/>
<path d="" fill="#231C23" transform="translate(0,0)"/>
<path d="" fill="#1C1C1C" transform="translate(0,0)"/>
<path d="" fill="#202020" transform="translate(0,0)"/>
<path d="" fill="#212121" transform="translate(0,0)"/>
</svg>
